<svg id="Layer_1" data-name="Layer 1" xmlns="http://www.w3.org/2000/svg" viewBox="0 0 941.19 210.51"><defs><style>.cls-1{fill:#fff;}</style></defs><title>Capacity-Wordmark-white</title><path class="cls-1" d="M66.64,142.68A35.31,35.31,0,1,1,94.71,86l23-17.62a64.31,64.31,0,1,0,2.21,75l-24-16.24A35.3,35.3,0,0,1,66.64,142.68Z" transform="translate(-2.33 0.01)"/><path class="cls-1" d="M597,142.68A35.31,35.31,0,1,1,625,86l23.05-17.62a64.32,64.32,0,1,0,2.2,75l-24-16.24A35.3,35.3,0,0,1,597,142.68Z" transform="translate(-2.33 0.01)"/><path class="cls-1" d="M222.34,55.07a64.31,64.31,0,1,0-.23,104.78l1.81,9.29h25.39V45.85H223.92ZM185,142.68a35.31,35.31,0,1,1,35.3-35.3A35.35,35.35,0,0,1,185,142.68Z" transform="translate(-2.33 0.01)"/><rect class="cls-1" x="653.37" y="45.85" width="29.01" height="123.29"/><path class="cls-1" d="M497.61,54.63A64.32,64.32,0,1,0,498,159.85l1.81,9.29h25.39V45.85H499.8Zm-36.73,88.05a35.31,35.31,0,1,1,35.3-35.3A35.35,35.35,0,0,1,460.88,142.68Z" transform="translate(-2.33 0.01)"/><path class="cls-1" d="M327,43.06a64,64,0,0,0-36.74,11.57L288,45.85H262.65V210.51h29V161.09A64.3,64.3,0,1,0,327,43.06Zm0,99.62a35.31,35.31,0,1,1,35.3-35.3A35.35,35.35,0,0,1,327,142.68Z" transform="translate(-2.33 0.01)"/><polygon class="cls-1" points="727.83 45.85 727.83 4.49 698.82 4.49 698.82 169.15 727.83 169.15 727.83 74.86 757.83 74.86 746.45 45.85 727.83 45.85"/><polygon class="cls-1" points="824.08 131.97 790.31 45.85 759.15 45.85 808.5 171.7 793.28 210.51 824.44 210.51 889 45.85 857.84 45.85 824.08 131.97"/><path class="cls-1" d="M670.2,0a17.19,17.19,0,1,0,17.19,17.19A17.19,17.19,0,0,0,670.2,0Z" transform="translate(-2.33 0.01)"/><path class="cls-1" d="M927,63.1c0-3.75-2-6.69-7.88-6.69-.62,0-5.39.06-6.6.06v21.7h3.81V70.05H919l6,8.12h4.62l-6.79-8.87A6.27,6.27,0,0,0,927,63.1Zm-8.19,3.38H916.3V60c1,0,1.89-.06,2.61-.06,3.1,0,4,1.46,4,3.16C922.94,65.37,921,66.48,918.78,66.48Z" transform="translate(-2.33 0.01)"/><path class="cls-1" d="M919.83,43.8a23.7,23.7,0,1,0,23.69,23.69A23.72,23.72,0,0,0,919.83,43.8Zm0,44a20.31,20.31,0,1,1,20.3-20.31A20.33,20.33,0,0,1,919.83,87.8Z" transform="translate(-2.33 0.01)"/></svg>